<?xml version="1.0" encoding="UTF-8"?>
<svg id="Layer_1" data-name="Layer 1" xmlns="http://www.w3.org/2000/svg" viewBox="0 0 600 160.18">
  <defs>
    <style>
      .cls-1 {
        fill: #fff;
      }
    </style>
  </defs>
  <g>
    <path class="cls-1" d="M362.37,120.63h-9.54c-5.16,0-9.04-1.36-11.62-4.08-2.58-2.72-3.87-6.39-3.87-11V30.92h15.08v77.4h9.96v12.31Z"/>
    <path class="cls-1" d="M314.98,108.32v-14.17h-.02v-14.11c0-8.85-2.05-15.72-6.16-20.61-4.11-4.89-9.85-7.33-17.22-7.33-5.53,0-9.89,1.29-13.07,3.87-3.18,2.58-5.56,5.81-7.12,9.68h-.69v-11.9h-15.08v66.87h15.08v-43.36c0-2.77.76-5.07,2.28-6.92,1.52-1.84,3.46-3.2,5.81-4.08,2.35-.88,4.86-1.31,7.54-1.31,4.7,0,8.14,1.41,10.3,4.22,2.16,2.81,3.25,7.03,3.25,12.66v17.48h.02v6.23c0,4.61,1.29,8.28,3.87,11,2.58,2.72,6.45,4.08,11.62,4.08h9.54v-12.31h-9.96Z"/>
    <path class="cls-1" d="M404.84,120.63c-6.73,0-12.57-1.55-17.5-4.63-4.93-3.09-8.76-7.45-11.48-13.07-2.72-5.62-4.08-9.73-4.08-17.39s1.36-11.76,4.08-17.39c2.72-5.62,6.55-9.98,11.48-13.07,4.93-3.09,10.77-4.63,17.5-4.63s12.43,1.55,17.36,4.63c4.93,3.09,8.76,7.45,11.48,13.07,2.72,5.63,4.08,9.74,4.08,17.39s-1.36,11.76-4.08,17.39c-2.72,5.63-6.55,9.98-11.48,13.07-4.94,3.09-10.72,4.63-17.36,4.63ZM404.84,108.04c5.16,0,9.29-1.59,12.38-4.77,3.09-3.18,4.63-7.91,4.63-14.18v-7.11c0-6.27-1.55-11-4.63-14.18-3.09-3.18-7.22-4.77-12.38-4.77s-9.2,1.59-12.38,4.77c-3.18,3.18-4.77,7.91-4.77,14.18v7.11c0,6.27,1.59,11,4.77,14.18,3.18,3.18,7.31,4.77,12.38,4.77Z"/>
    <path class="cls-1" d="M482.3,120.63c-10.42,0-18.49-3.39-24.21-10.17-5.72-6.78-8.58-13.4-8.58-24.93s2.86-18.15,8.58-24.93c5.72-6.78,13.79-10.17,24.21-10.17,7.19,0,13.09,1.61,17.71,4.84,4.61,3.23,7.93,7.52,9.96,12.86l-12.45,5.81c-1.02-3.32-2.81-5.97-5.39-7.95-2.58-1.98-5.86-2.97-9.82-2.97-5.53,0-9.73,1.73-12.59,5.19-2.86,3.46-4.29,7.95-4.29,13.49v7.67c0,5.53,1.43,10.05,4.29,13.56,2.86,3.5,7.05,5.26,12.59,5.26,4.33,0,7.84-1.08,10.51-3.25,2.67-2.17,4.79-5.05,6.36-8.65l11.34,6.09c-2.31,5.9-5.86,10.42-10.65,13.56-4.8,3.13-10.65,4.7-17.57,4.7Z"/>
    <path class="cls-1" d="M580.75,108.32l-20.3-31.54,25.45-28.08h-17.29l-17.84,19.78-10.1,12.73h-.69V30.92h-15.08v89.71h15.08v-23.38l10.1-10.51,17.49,28.94c1.85,3.07,5.18,4.94,8.76,4.94h13.06v-12.31h-8.63Z"/>
    <path class="cls-1" d="M221.12,29.26v56.73c0,11.42-9.26,20.68-20.68,20.68s-20.68-9.26-20.68-20.68V29.26h-15.35v55.34c0,19.9,16.13,36.03,36.03,36.03h0c19.9,0,36.03-16.13,36.03-36.03V29.26h-15.35Z"/>
  </g>
  <path class="cls-1" d="M10.89,24.27v78.22c0,29.25,23.71,52.97,52.97,52.97h0v-44.29c0-23.85-29.55-34.28-29.55-34.28h29.55V24.27H10.89Z"/>
  <path class="cls-1" d="M71.26,4.55v44.01c0,23.85,29.55,34.28,29.55,34.28h-29.55v52.9c29.25,0,52.97-23.71,52.97-52.97V4.55h-52.97Z"/>
</svg>